<svg
width="13"
height="13"
viewBox="0 0 13 13"
fill="none"
xmlns="http://www.w3.org/2000/svg"
>
<path
    d="M2.87612 8.149C2.87612 8.87165 2.28571 9.46205 1.56306 9.46205C0.840402 9.46205 0.25 8.87165 0.25 8.149C0.25 7.42634 0.840402 6.83594 1.56306 6.83594H2.87612V8.149ZM3.53795 8.149C3.53795 7.42634 4.12835 6.83594 4.851 6.83594C5.57366 6.83594 6.16406 7.42634 6.16406 8.149V11.4369C6.16406 12.1596 5.57366 12.75 4.851 12.75C4.12835 12.75 3.53795 12.1596 3.53795 11.4369V8.149ZM4.851 2.87612C4.12835 2.87612 3.53795 2.28571 3.53795 1.56306C3.53795 0.840402 4.12835 0.25 4.851 0.25C5.57366 0.25 6.16406 0.840402 6.16406 1.56306V2.87612H4.851V2.87612ZM4.851 3.53795C5.57366 3.53795 6.16406 4.12835 6.16406 4.851C6.16406 5.57366 5.57366 6.16406 4.851 6.16406H1.56306C0.840402 6.16406 0.25 5.57366 0.25 4.851C0.25 4.12835 0.840402 3.53795 1.56306 3.53795H4.851V3.53795ZM10.1239 4.851C10.1239 4.12835 10.7143 3.53795 11.4369 3.53795C12.1596 3.53795 12.75 4.12835 12.75 4.851C12.75 5.57366 12.1596 6.16406 11.4369 6.16406H10.1239V4.851V4.851ZM9.46205 4.851C9.46205 5.57366 8.87165 6.16406 8.149 6.16406C7.42634 6.16406 6.83594 5.57366 6.83594 4.851V1.56306C6.83594 0.840402 7.42634 0.25 8.149 0.25C8.87165 0.25 9.46205 0.840402 9.46205 1.56306V4.851V4.851ZM8.149 10.1239C8.87165 10.1239 9.46205 10.7143 9.46205 11.4369C9.46205 12.1596 8.87165 12.75 8.149 12.75C7.42634 12.75 6.83594 12.1596 6.83594 11.4369V10.1239H8.149ZM8.149 9.46205C7.42634 9.46205 6.83594 8.87165 6.83594 8.149C6.83594 7.42634 7.42634 6.83594 8.149 6.83594H11.4369C12.1596 6.83594 12.75 7.42634 12.75 8.149C12.75 8.87165 12.1596 9.46205 11.4369 9.46205H8.149Z"
    fill="white"
></path>
</svg>