<svg
  width="13"
  height="11"
  viewBox="0 0 13 11"
  fill="none"
  xmlns="http://www.w3.org/2000/svg"
>
  <path
    d="M11.4651 2.95396C11.4731 3.065 11.4731 3.17606 11.4731 3.2871C11.4731 6.67383 8.89535 10.5761 4.18402 10.5761C2.73255 10.5761 1.38421 10.1557 0.25 9.42608C0.456226 9.44986 0.654494 9.4578 0.868655 9.4578C2.06629 9.4578 3.16879 9.0533 4.04918 8.36326C2.92291 8.33946 1.97906 7.60183 1.65386 6.5866C1.81251 6.61038 1.97112 6.62624 2.1377 6.62624C2.36771 6.62624 2.59774 6.59451 2.81188 6.53901C1.63802 6.30105 0.757595 5.26996 0.757595 4.02472V3.99301C1.09864 4.18336 1.49524 4.30233 1.91558 4.31818C1.22554 3.85814 0.773464 3.07294 0.773464 2.1846C0.773464 1.70872 0.900344 1.27249 1.12244 0.891774C2.38355 2.44635 4.27919 3.46156 6.40481 3.57262C6.36516 3.38226 6.34136 3.184 6.34136 2.9857C6.34136 1.57388 7.4835 0.423828 8.90323 0.423828C9.64086 0.423828 10.3071 0.733156 10.7751 1.23284C11.354 1.1218 11.9093 0.907643 12.401 0.614185C12.2106 1.20906 11.8061 1.70875 11.2748 2.02598C11.7903 1.97049 12.29 1.82769 12.75 1.62942C12.4011 2.13702 11.9648 2.5891 11.4651 2.95396V2.95396Z"
    fill="white"
  ></path>
</svg>