<svg
    width="13"
    height="9"
    viewBox="0 0 13 9"
    fill="none"
    xmlns="http://www.w3.org/2000/svg"
>
    <path
    d="M12.4888 1.48066C12.345 0.939353 11.9215 0.513038 11.3837 0.368362C10.4089 0.105469 6.5 0.105469 6.5 0.105469C6.5 0.105469 2.59116 0.105469 1.61633 0.368362C1.07853 0.513061 0.65496 0.939353 0.5112 1.48066C0.25 2.4618 0.25 4.50887 0.25 4.50887C0.25 4.50887 0.25 6.55595 0.5112 7.53709C0.65496 8.0784 1.07853 8.48695 1.61633 8.63163C2.59116 8.89452 6.5 8.89452 6.5 8.89452C6.5 8.89452 10.4088 8.89452 11.3837 8.63163C11.9215 8.48695 12.345 8.0784 12.4888 7.53709C12.75 6.55595 12.75 4.50887 12.75 4.50887C12.75 4.50887 12.75 2.4618 12.4888 1.48066V1.48066ZM5.22158 6.36746V2.65029L8.48861 4.50892L5.22158 6.36746V6.36746Z"
    fill="white"
    ></path>
</svg>